<?xml version="1.0" encoding="utf-8"?>
<!-- Generator: Adobe Illustrator 27.0.0, SVG Export Plug-In . SVG Version: 6.00 Build 0)  -->
<svg version="1.1" id="Layer_1" xmlns="http://www.w3.org/2000/svg" xmlns:xlink="http://www.w3.org/1999/xlink" x="0px" y="0px"
	 viewBox="0 0 2282.9 600" style="enable-background:new 0 0 2282.9 600;" xml:space="preserve">
<style type="text/css">
	.st0{fill:#FFFFFF;}
</style>
<g>
	<g>
		<g>
			<g>
				<path class="st0" d="M709.4,200.4h-96.9c-32.3,0-58.6,26.2-58.6,58.6v12.3c0,18.2,12.9,33.8,30.8,37.1l124,23.3
					c3.6,0.7,6.3,3.9,6.3,7.6v1c0,4.3-3.5,7.7-7.7,7.7h-91.5c-5,0-9-4-9-9v-4.5c0-3.1-2.5-5.7-5.7-5.7h-41.6c-3.1,0-5.7,2.5-5.7,5.7
					v7.9c0,32.3,26.2,58.6,58.6,58.6h96.9c32.3,0,58.6-26.2,58.6-58.6v-13c0-18.2-11.8-32.4-30.8-37.1l-124-23.3
					c-3.6-0.7-6.3-3.9-6.3-7.6v-0.3c0-4.3,3.5-7.7,7.7-7.7H706c5,0,9,4,9,9v2.9c0,3.1,2.5,5.7,5.7,5.7h41.6c3.1,0,5.7-2.5,5.7-5.7
					V259C767.9,226.7,741.7,200.4,709.4,200.4z"/>
				<path class="st0" d="M989.5,325.8h-41.6c-3.1,0-5.7,2.5-5.7,5.7v7.6c0,5-4,9-9,9h-90.2c-5,0-9-4-9-9v-76.7c0-5,4-9,9-9h90.2
					c5,0,9,4,9,9v11.1c0,3.1,2.5,5.7,5.7,5.7h41.6c3.1,0,5.7-2.5,5.7-5.7V259c0-32.3-26.2-58.6-58.6-58.6h-96.9
					c-32.3,0-58.6,26.2-58.6,58.6v83.4c0,32.3,26.2,58.6,58.6,58.6h96.9c32.3,0,58.6-26.2,58.6-58.6v-10.9
					C995.2,328.3,992.6,325.8,989.5,325.8z"/>
				<path class="st0" d="M2082.6,259c0-32.3-26.2-58.6-58.6-58.6h-149.8c-3.1,0-5.7,2.5-5.7,5.7v189.2c0,3.1,2.5,5.7,5.7,5.7h41.6
					c3.1,0,5.7-2.5,5.7-5.7v-39c0-4.9,4-9,8.9-9l37-0.5h53.3c5,0,9,4,9,9v39.5c0,3.1,2.5,5.7,5.7,5.7h41.6c3.1,0,5.7-2.5,5.7-5.7
					v-42.9c0-11.9-8.9-27-19.3-32.1c10.4-7.4,19.3-20.3,19.3-32.1V259z M1967.4,293.9l-36.7,0.5c-5,0.1-9.2-4-9.2-9V263c0-5,4-9,9-9
					l93.6-0.6c3.1,0,5.7,2.5,5.7,5.7v25.8c0,5-4,9-9,9H1967.4z"/>
				<path class="st0" d="M1641.3,259v83.4c0,32.3,26.2,58.6,58.6,58.6h149.8c3.1,0,5.7-2.5,5.7-5.7v-41.6c0-3.1-2.5-5.7-5.7-5.7
					h-146.4c-5,0-9-4-9-9v-5.5c0-5,4-9,9-9h128.6c3.1,0,5.7-2.5,5.7-5.7v-35.6c0-3.1-2.5-5.7-5.7-5.7h-128.6c-5,0-9-4-9-9v-6.2
					c0-5,4-9,9-9h146.4c3.1,0,5.7-2.5,5.7-5.7v-41.6c0-3.1-2.5-5.7-5.7-5.7h-149.8C1667.6,200.4,1641.3,226.7,1641.3,259z"/>
				<path class="st0" d="M1143.9,201h-25.7h-22.3h-24.6h-5.9c-2.4,0-4.5,1.5-5.3,3.8l-67.2,188.4c-1.3,3.7,1.4,7.6,5.3,7.6h44.8
					c2.4,0,4.5-1.5,5.3-3.8l6.6-18.4c1.7-4.8,6.2-8,11.3-8h90.2c4.9,0,9.3,3,11.2,7.5l7.7,19.1c0.9,2.1,2.9,3.5,5.3,3.5h44.6
					c4,0,6.8-4.1,5.3-7.8l-76.2-188.4c-0.9-2.1-2.9-3.5-5.3-3.5H1143.9z M1080.9,305.5l16.2-45.6c1.3-3.6,4.7-6,8.5-6h5.6
					c3.7,0,7,2.2,8.4,5.6l18.4,45.6c2.4,5.9-2,12.4-8.4,12.4h-40.3C1083.2,317.6,1078.8,311.4,1080.9,305.5z"/>
				<path class="st0" d="M1191.7,253.5h63c6.6,0,12,5.4,12,12v129.6c0,3.1,2.5,5.7,5.7,5.7h41.7c3.1,0,5.7-2.5,5.7-5.7V265.5
					c0-6.6,5.4-12,12-12h63c3.1,0,5.7-2.5,5.7-5.7v-41.7c0-3.1-2.5-5.7-5.7-5.7h-203.1c-3.1,0-5.7,2.5-5.7,5.7v41.7
					C1186,250.9,1188.5,253.5,1191.7,253.5z"/>
				<path class="st0" d="M1419.3,253.5h63c6.6,0,12,5.4,12,12v129.6c0,3.1,2.5,5.7,5.7,5.7h41.7c3.1,0,5.7-2.5,5.7-5.7V265.5
					c0-6.6,5.4-12,12-12h63c3.1,0,5.7-2.5,5.7-5.7v-41.7c0-3.1-2.5-5.7-5.7-5.7h-203.1c-3.1,0-5.7,2.5-5.7,5.7v41.7
					C1413.7,250.9,1416.2,253.5,1419.3,253.5z"/>
			</g>
		</g>
	</g>
	<g>
		<circle class="st0" cx="337.4" cy="410.1" r="39.3"/>
		<circle class="st0" cx="337.4" cy="297.2" r="39.3"/>
		<circle class="st0" cx="435.2" cy="240.8" r="39.3"/>
		<circle class="st0" cx="239.7" cy="240.8" r="39.3"/>
		<ellipse class="st0" cx="337.4" cy="178.5" rx="48.5" ry="28"/>
		<ellipse transform="matrix(0.5 -0.866 0.866 0.5 -88.6786 559.5815)" class="st0" cx="440.3" cy="356.6" rx="48.5" ry="28"/>
		<ellipse transform="matrix(0.866 -0.5 0.5 0.866 -146.8676 165.0598)" class="st0" cx="234.6" cy="356.6" rx="28" ry="48.5"/>
	</g>
</g>
</svg>
